<?xml version="1.0" standalone="no"?>
<!DOCTYPE svg PUBLIC "-//W3C//DTD SVG 20010904//EN"
 "http://www.w3.org/TR/2001/REC-SVG-20010904/DTD/svg10.dtd">
<svg version="1.0" xmlns="http://www.w3.org/2000/svg"
 width="706.000000pt" height="706.000000pt" viewBox="0 0 706.000000 706.000000"
 preserveAspectRatio="xMidYMid meet">
<metadata>
Created by potrace 1.14, written by Peter Selinger 2001-2017
</metadata>
<g transform="translate(0.000000,706.000000) scale(0.100000,-0.100000)"
fill="#000000" stroke="none">
<path d="M60 5619 l0 -149 985 0 c542 0 985 -3 985 -6 0 -3 -18 -38 -39 -77
-37 -70 -208 -388 -296 -552 -24 -44 -118 -219 -209 -388 -91 -170 -166 -310
-166 -312 0 -2 -17 -34 -38 -72 -21 -37 -63 -113 -92 -168 -29 -55 -96 -181
-150 -280 -53 -99 -117 -218 -142 -265 -25 -47 -159 -296 -298 -555 -139 -258
-273 -508 -297 -555 -25 -47 -53 -98 -63 -115 -9 -16 -43 -79 -75 -140 -32
-60 -61 -114 -65 -120 -4 -5 -27 -49 -52 -96 l-45 -85 0 -147 -1 -147 1654 0
c910 0 1654 3 1655 8 1 4 2 70 3 147 l1 140 -1042 0 c-867 0 -1042 2 -1038 13
3 8 136 257 296 555 161 298 307 570 325 605 19 34 49 90 68 125 18 34 116
215 216 402 100 187 197 367 215 400 27 49 511 951 645 1200 20 39 87 163 149
277 l111 206 0 151 0 151 -1600 -1 -1600 -1 0 -149z m2849 -191 c-18 -36 -111
-209 -349 -653 -21 -38 -84 -155 -140 -260 -155 -287 -164 -304 -360 -670
-100 -187 -197 -367 -215 -400 -18 -33 -162 -301 -320 -595 -158 -294 -363
-677 -456 -850 l-170 -315 -284 0 c-157 0 -285 1 -285 3 0 4 596 1116 990
1847 95 177 252 469 300 560 29 55 56 105 60 110 4 6 31 55 60 110 45 84 156
292 448 835 25 47 67 125 94 174 26 49 48 91 48 93 0 2 7 15 16 28 l16 25 284
0 284 0 -21 -42z"/>
<path d="M5229 5446 c-2 -2 -42 -6 -89 -10 -191 -15 -493 -94 -590 -156 -14
-9 -38 -21 -53 -28 -98 -42 -294 -203 -357 -292 -13 -19 -27 -37 -31 -40 -3
-3 -24 -34 -46 -70 -101 -169 -153 -369 -154 -595 0 -72 2 -137 5 -145 3 -8 7
-34 10 -58 27 -212 175 -455 387 -634 188 -160 446 -304 889 -498 247 -108
514 -241 615 -307 233 -153 324 -294 312 -483 -16 -251 -199 -440 -511 -526
-244 -68 -675 -18 -948 111 -229 108 -403 239 -630 475 l-144 149 -100 -79
c-54 -43 -99 -86 -99 -94 0 -30 240 -272 420 -424 63 -53 252 -176 345 -224
285 -147 586 -213 970 -211 684 3 1301 313 1498 755 68 150 93 271 93 440 1
231 -62 425 -194 608 -94 129 -293 298 -487 412 -114 67 -328 173 -605 301
-455 209 -577 274 -710 380 -180 142 -265 293 -265 469 0 177 106 322 311 425
119 60 183 75 324 78 551 11 973 -198 1412 -701 l71 -82 91 105 90 105 -47 54
c-89 101 -297 300 -392 373 -296 230 -557 343 -915 396 -94 14 -466 30 -476
21z m-648 -463 c-108 -214 -119 -490 -27 -673 127 -255 401 -454 976 -710 235
-104 527 -248 650 -320 389 -226 570 -467 572 -758 1 -103 -6 -155 -34 -242
-43 -135 -120 -252 -236 -361 -62 -58 -185 -149 -202 -149 -4 0 12 38 35 85
61 121 80 204 80 355 0 106 -4 136 -24 194 -74 215 -243 373 -586 544 -121 61
-429 202 -441 202 -2 0 -66 28 -141 61 -551 246 -801 437 -943 718 -94 188
-108 449 -35 662 56 161 182 330 310 414 72 48 80 44 46 -22z"/>
</g>
</svg>
